<?xml version="1.0" standalone="no"?>
<!DOCTYPE svg PUBLIC "-//W3C//DTD SVG 20010904//EN"
 "http://www.w3.org/TR/2001/REC-SVG-20010904/DTD/svg10.dtd">
<svg version="1.0" xmlns="http://www.w3.org/2000/svg"
 width="260.000000pt" height="260.000000pt" viewBox="0 0 260.000000 260.000000"
 preserveAspectRatio="xMidYMid meet">
<metadata>
Created by potrace 1.11, written by Peter Selinger 2001-2013
</metadata>
<g transform="translate(0.000000,260.000000) scale(0.100000,-0.100000)"
fill="#000000" stroke="none">
<path d="M1955 2001 c-3 -5 -2 -12 3 -15 5 -3 9 1 9 9 0 17 -3 19 -12 6z"/>
<path d="M1826 1982 c-3 -4 4 -9 15 -9 23 -2 25 3 4 10 -8 4 -16 3 -19 -1z"/>
<path d="M2002 1979 c21 -12 13 -40 -9 -32 -12 5 -12 7 -1 14 9 6 6 8 -8 7
-15 -2 -20 -8 -17 -23 2 -11 1 -14 -3 -7 -3 6 -10 12 -15 12 -6 0 -8 -4 -4 -9
3 -6 -5 -15 -17 -21 -22 -11 -22 -10 -4 4 11 9 16 16 11 16 -5 0 -4 5 3 12 15
15 15 28 1 28 -5 0 -7 -4 -4 -10 3 -5 -1 -10 -10 -10 -9 0 -13 4 -10 10 3 6
-1 7 -9 4 -9 -3 -16 -10 -16 -16 0 -5 4 -7 9 -3 5 3 12 1 15 -4 8 -13 -14 -26
-23 -14 -12 18 -40 22 -52 7 -7 -8 -18 -13 -25 -10 -8 3 -13 0 -11 -7 1 -7 -3
-11 -10 -10 -7 2 -10 -4 -6 -13 3 -9 0 -19 -6 -24 -9 -5 -8 -9 4 -13 9 -4 13
-3 10 2 -3 5 -1 12 5 16 6 4 8 10 5 15 -3 5 -1 12 5 15 6 4 9 2 8 -4 -2 -5 6
-17 17 -25 11 -8 15 -16 8 -16 -6 0 -15 5 -18 10 -9 15 -25 2 -18 -15 5 -16
-20 -17 -44 -2 -6 4 -15 2 -19 -4 -4 -7 -3 -9 4 -5 6 3 15 -2 21 -11 7 -13 5
-23 -7 -37 -9 -11 -11 -16 -4 -12 6 4 12 2 12 -3 0 -6 -5 -11 -12 -11 -6 0 -9
-2 -6 -5 3 -3 13 -3 22 1 14 5 14 9 4 22 -9 11 -9 14 -1 9 8 -5 11 1 8 20 -2
16 -2 22 1 15 3 -6 11 -9 17 -5 9 5 9 3 1 -8 -9 -12 -10 -21 -5 -46 0 -3 11 2
23 13 14 12 18 13 10 3 -6 -9 -8 -19 -4 -23 4 -4 2 -6 -3 -4 -6 2 -10 0 -10
-3 0 -3 -5 -12 -12 -20 -9 -11 -8 -18 1 -31 7 -10 17 -14 21 -10 5 4 5 2 1 -5
-4 -7 -14 -9 -23 -6 -12 5 -14 3 -8 -7 5 -9 4 -11 -4 -6 -9 6 -9 11 -1 21 8 9
8 15 0 20 -5 3 -10 -2 -10 -11 0 -16 -2 -15 -22 2 -14 12 -18 13 -10 3 6 -9 8
-19 4 -23 -4 -4 -2 -6 4 -4 13 4 67 -53 58 -61 -4 -3 -9 0 -11 7 -3 6 -10 9
-15 6 -7 -4 -8 -2 -4 4 4 7 3 12 -2 12 -5 0 -12 -8 -15 -19 -3 -12 1 -18 12
-17 10 1 15 -5 13 -16 -2 -13 2 -16 15 -12 15 5 15 4 3 -4 -8 -6 -17 -9 -21
-6 -4 2 -10 0 -14 -6 -3 -5 1 -10 9 -10 9 0 16 -4 16 -10 0 -21 2 -25 17 -42
13 -15 13 -18 -6 -28 -19 -10 -25 -7 -22 13 0 4 -3 7 -7 7 -10 0 -35 -50 -28
-57 2 -2 7 5 11 16 3 12 11 19 16 15 6 -4 6 -11 -2 -20 -6 -8 -8 -14 -4 -14 4
0 -3 -9 -16 -21 l-24 -21 25 16 c14 9 25 22 25 29 0 6 9 13 20 14 18 3 18 2 2
-5 -10 -4 -18 -11 -18 -15 3 -25 0 -37 -8 -33 -5 4 -8 -2 -7 -11 2 -10 -4 -21
-13 -25 -14 -6 -14 -7 1 -7 11 -1 16 -8 13 -21 -2 -11 0 -18 6 -15 5 4 9 1 9
-5 0 -7 7 -7 23 1 17 9 19 9 11 0 -15 -16 -46 -21 -61 -9 -7 6 -14 5 -19 -3
-4 -7 -3 -9 3 -6 21 13 36 -25 20 -50 -4 -6 -3 -14 2 -18 6 -3 7 -13 4 -22 -5
-12 -2 -15 10 -10 9 3 19 1 23 -5 4 -6 3 -8 -3 -5 -9 6 -22 -16 -27 -46 0 -4
-7 -11 -14 -16 -11 -7 -11 -9 2 -14 9 -4 13 -13 10 -22 -3 -8 -2 -15 4 -15 11
0 11 -18 -2 -38 -12 -20 -2 -24 28 -13 14 6 26 8 26 6 0 -3 -11 -10 -25 -15
-18 -7 -23 -15 -20 -31 5 -24 3 -22 30 -37 17 -9 17 -10 -7 -9 -14 1 -24 5
-22 9 2 4 1 9 -4 12 -4 2 -8 -4 -9 -14 -1 -11 2 -22 8 -25 5 -4 9 -11 9 -18 0
-8 -3 -8 -12 1 -7 7 -17 12 -22 12 -6 0 -3 -5 7 -11 9 -6 15 -15 11 -20 -3 -5
0 -16 6 -24 10 -12 10 -18 0 -30 -7 -8 -9 -15 -4 -15 5 0 0 -7 -10 -15 -11 -8
-15 -15 -10 -15 6 0 16 6 23 12 11 11 13 9 8 -9 -3 -13 0 -26 5 -30 7 -3 8 -1
4 5 -4 7 -2 12 4 12 7 0 10 -6 7 -12 -2 -7 -12 -12 -21 -10 -15 3 -16 0 -6
-17 6 -12 13 -21 16 -21 3 0 2 5 -1 10 -3 6 -2 10 2 10 5 0 9 -18 9 -40 0 -22
-3 -40 -7 -40 -4 0 -6 9 -4 20 2 11 -4 25 -14 32 -10 7 -19 17 -19 21 0 5 -3
11 -5 14 -3 3 -4 -3 -3 -12 1 -9 9 -21 17 -26 8 -5 10 -9 5 -9 -6 0 -5 -5 2
-12 9 -9 8 -16 -4 -29 -10 -11 -12 -19 -5 -23 6 -4 8 -13 4 -21 -3 -8 -1 -15
5 -15 11 0 11 -18 -2 -38 -12 -20 -2 -24 28 -13 14 6 26 8 26 6 0 -3 -11 -10
-25 -15 -18 -7 -23 -15 -20 -31 5 -24 3 -22 30 -37 17 -9 17 -10 -7 -9 -14 1
-24 5 -22 9 2 4 1 9 -4 12 -4 2 -8 -4 -9 -14 -1 -11 2 -22 8 -25 5 -4 9 -11 9
-17 0 -6 -7 -5 -17 3 -16 12 -17 12 -6 -2 7 -9 10 -19 6 -22 -3 -4 -1 -13 6
-20 14 -17 4 -50 -13 -40 -8 5 -8 3 0 -8 12 -16 12 -29 1 -46 -4 -6 -3 -14 2
-18 6 -3 7 -13 4 -22 -5 -12 -2 -15 10 -10 9 3 19 1 23 -5 4 -6 3 -8 -3 -5 -9
6 -22 -16 -27 -46 0 -4 -7 -11 -14 -16 -11 -7 -11 -9 2 -14 9 -4 13 -13 10
-22 -3 -8 -2 -15 4 -15 11 0 11 -18 -2 -38 -12 -20 -2 -24 28 -13 14 6 26 8
26 6 0 -3 -11 -10 -25 -15 -17 -7 -23 -15 -19 -27 5 -16 4 -16 -10 1 -9 11
-16 15 -16 9 0 -7 4 -14 10 -18 5 -3 7 -12 4 -20 -5 -13 41 -14 337 -12 l344
2 -2 23 c-2 12 2 22 7 22 6 0 10 5 10 11 0 8 -6 7 -17 -2 -15 -12 -16 -12 -10
4 4 10 7 21 7 23 0 3 4 2 10 -1 6 -3 7 1 4 9 -3 9 -10 16 -16 16 -5 0 -6 4 -3
10 3 6 2 10 -4 10 -5 0 -11 -6 -14 -12 -2 -7 -8 -9 -13 -5 -5 4 -2 12 6 17 8
6 11 10 6 10 -5 0 -3 6 3 14 14 17 -11 42 -31 30 -7 -4 -4 2 6 14 15 17 22 19
33 10 10 -8 11 -13 2 -18 -8 -6 -8 -9 0 -15 9 -5 9 -10 0 -21 -8 -10 -8 -14 0
-14 11 0 13 7 14 48 0 12 4 22 8 22 5 0 9 5 9 11 0 8 -6 7 -17 -2 -15 -12 -16
-12 -10 4 4 10 7 21 7 23 0 3 4 2 10 -1 6 -3 7 1 4 9 -3 9 -10 16 -16 16 -5 0
-6 5 -3 10 3 6 2 10 -4 10 -5 0 -9 -9 -8 -19 0 -11 5 -17 9 -15 4 3 5 -2 2
-10 -5 -12 -9 -13 -19 -3 -9 9 -10 14 -1 19 8 6 7 8 -2 8 -7 0 -10 5 -7 10 3
6 -1 13 -10 16 -15 6 -14 8 1 25 19 21 51 15 33 -7 -8 -10 -8 -14 0 -14 11 0
13 7 14 48 0 12 4 22 8 22 5 0 9 5 9 11 0 8 -6 7 -17 -2 -15 -12 -16 -12 -10
4 4 10 7 21 7 23 0 3 4 2 10 -1 6 -3 7 1 4 9 -3 9 -10 16 -16 16 -5 0 -6 5 -3
10 3 6 2 10 -4 10 -5 0 -11 -6 -14 -12 -2 -7 -8 -9 -13 -5 -5 4 -2 12 6 17 8
6 11 10 6 10 -5 0 -3 6 3 14 14 17 -11 42 -31 30 -7 -4 -4 2 6 14 15 17 22 19
33 10 10 -8 11 -13 2 -18 -8 -6 -8 -9 0 -15 9 -5 9 -10 0 -21 -8 -10 -8 -14 0
-14 11 0 13 7 14 48 0 12 4 22 8 22 5 0 9 5 9 11 0 8 -6 7 -17 -2 -15 -12 -16
-12 -10 4 4 10 7 21 7 23 0 3 4 2 10 -1 6 -3 7 1 4 9 -3 9 -10 16 -16 16 -5 0
-6 5 -3 10 3 6 2 10 -4 10 -5 0 -9 -9 -8 -19 0 -11 5 -17 9 -15 4 3 5 -2 2
-10 -5 -12 -9 -13 -19 -3 -9 9 -10 14 -1 19 8 6 7 8 -2 8 -7 0 -10 5 -7 10 3
6 -1 13 -10 16 -15 6 -14 8 1 25 19 21 51 15 33 -7 -8 -10 -8 -14 0 -14 11 0
13 7 14 48 0 12 4 22 8 22 5 0 9 5 9 11 0 8 -6 7 -17 -2 -15 -12 -16 -12 -10
4 4 10 7 21 7 23 0 3 4 2 10 -1 6 -3 7 1 4 9 -3 9 -10 16 -16 16 -5 0 -6 4 -3
10 3 5 2 10 -4 10 -5 0 -11 -6 -14 -12 -2 -7 -8 -9 -13 -5 -5 4 -2 12 6 17 8
6 11 10 6 10 -5 0 -3 6 3 14 14 17 -11 42 -31 30 -7 -4 -4 2 6 14 15 17 22 19
33 10 10 -8 11 -13 2 -18 -8 -6 -8 -9 0 -15 9 -5 9 -10 0 -21 -8 -10 -8 -14 0
-14 11 0 13 7 14 48 0 12 4 22 8 22 5 0 9 5 9 11 0 8 -6 7 -17 -2 -15 -12 -16
-12 -10 4 4 10 7 21 7 23 0 3 4 2 10 -1 6 -3 7 1 4 9 -3 9 -10 16 -16 16 -5 0
-6 5 -3 10 3 6 2 10 -4 10 -5 0 -9 -9 -8 -19 0 -11 5 -17 9 -15 4 3 5 -2 2
-10 -5 -12 -9 -13 -19 -3 -9 9 -10 14 -1 19 8 6 7 8 -2 8 -7 0 -10 5 -7 10 3
6 -1 13 -10 16 -15 6 -14 8 1 25 19 21 51 15 33 -7 -8 -10 -8 -14 0 -14 11 0
13 7 14 48 0 12 4 22 8 22 5 0 9 5 9 11 0 8 -6 7 -17 -2 -15 -12 -16 -12 -10
4 4 10 7 21 7 23 0 3 4 2 10 -1 6 -3 7 1 4 9 -3 9 -10 16 -16 16 -5 0 -6 5 -3
10 3 6 2 10 -4 10 -5 0 -11 -6 -14 -12 -2 -7 -8 -9 -13 -5 -5 4 -2 12 6 17 8
6 11 10 6 10 -5 0 -3 6 3 14 14 17 -11 42 -31 30 -7 -4 -4 2 6 14 15 17 22 19
33 10 10 -8 11 -13 2 -18 -8 -6 -8 -9 0 -15 9 -5 9 -10 0 -21 -8 -10 -8 -14 0
-14 11 0 13 7 14 48 0 12 4 22 8 22 5 0 9 5 9 11 0 8 -6 7 -17 -2 -15 -12 -16
-12 -10 4 4 10 7 21 7 23 0 3 4 2 10 -1 6 -3 7 1 4 9 -3 9 -10 16 -16 16 -5 0
-6 5 -3 10 3 6 2 10 -4 10 -5 0 -9 -9 -8 -19 0 -11 5 -17 9 -15 4 3 5 -2 2
-10 -5 -12 -9 -13 -19 -3 -9 9 -10 14 -1 19 8 6 7 8 -2 8 -7 0 -10 5 -7 10 3
6 -1 13 -10 16 -15 6 -14 8 1 25 19 21 51 15 33 -7 -8 -10 -8 -14 0 -14 11 0
13 7 14 48 0 12 4 22 8 22 5 0 9 5 9 11 0 8 -6 7 -17 -2 -15 -12 -16 -12 -10
4 4 10 7 21 7 23 0 3 4 2 10 -1 6 -3 7 1 4 9 -3 9 -10 16 -16 16 -5 0 -6 5 -3
10 3 6 2 10 -4 10 -5 0 -11 -6 -14 -12 -2 -7 -8 -9 -13 -5 -5 4 -2 12 6 17 8
6 11 10 6 10 -5 0 -3 6 3 14 14 17 -11 42 -31 30 -7 -4 -4 2 6 14 15 17 22 19
33 10 10 -8 11 -13 2 -18 -8 -6 -8 -9 0 -15 9 -5 9 -10 0 -21 -8 -10 -8 -14 0
-14 11 0 13 7 14 48 0 12 4 22 8 22 5 0 9 5 9 11 0 8 -6 7 -17 -2 -15 -12 -16
-12 -10 4 4 10 7 21 7 23 0 3 4 2 10 -1 6 -3 7 1 4 9 -3 9 -10 16 -16 16 -5 0
-6 5 -3 10 3 6 2 10 -4 10 -5 0 -9 -9 -8 -19 0 -11 5 -17 9 -15 4 3 5 -2 2
-10 -5 -12 -9 -13 -19 -3 -9 9 -10 14 -1 19 8 6 7 8 -2 8 -7 0 -10 5 -7 10 3
6 -1 13 -10 16 -15 6 -14 8 1 25 19 21 51 15 33 -7 -8 -10 -8 -14 0 -14 11 0
13 7 14 48 0 12 4 22 8 22 5 0 9 5 9 11 0 8 -6 7 -17 -2 -15 -12 -16 -12 -10
4 4 10 7 21 7 23 0 3 4 2 10 -1 6 -3 7 1 4 9 -6 16 -14 19 -44 18 -8 -1 -3 4
13 11 15 6 27 15 27 20 0 4 -4 5 -10 2 -5 -3 -18 -1 -27 5 -13 7 -14 10 -3 8
8 -2 15 2 15 7 0 6 -6 9 -13 7 -9 -2 -12 2 -8 10 3 7 9 20 12 29 3 9 15 21 27
27 21 9 21 9 -5 9 -15 0 -26 -3 -23 -6 2 -4 -1 -13 -6 -21 -7 -11 -8 -7 -5 13
4 23 2 28 -10 23 -8 -3 -12 -1 -9 4 3 5 18 8 33 6 15 -2 21 -1 15 1 -7 2 -13
9 -13 14 0 6 -4 7 -10 4 -6 -3 -7 1 -4 9 3 9 11 13 17 9 6 -3 2 5 -9 19 -10
14 -23 24 -28 21 -4 -3 -4 -8 2 -12 12 -8 7 -40 -9 -55 -9 -8 -9 -6 -1 10 7
12 7 26 1 35 -7 12 -9 12 -9 0 0 -8 -3 -11 -6 -8 -4 4 0 17 9 31 14 21 14 24
1 22 -8 -1 -14 -6 -13 -11 2 -15 -24 -23 -43 -12 -11 8 -16 19 -13 32 3 11 -2
5 -12 -12 -17 -33 -36 -42 -48 -23 -4 6 -11 8 -16 4 -6 -3 -3 -12 8 -21 16
-13 15 -13 -7 -1 -14 7 -29 11 -33 10 -5 -1 -6 2 -2 8 3 5 1 10 -4 10 -6 0
-10 5 -8 11 1 6 -5 14 -13 16 -9 3 -11 1 -5 -4 13 -10 13 -48 2 -60 -5 -4 -7
-3 -5 4 2 6 0 11 -4 12 -22 3 -28 0 -22 -11 4 -7 3 -8 -4 -4 -9 5 -9 13 -2 27
6 10 13 19 16 19 3 0 3 -4 0 -8 -3 -5 1 -9 9 -9 11 0 10 5 -2 24 -18 27 -25
30 -16 6 6 -16 5 -16 -10 -4 -10 8 -20 11 -24 7 -3 -3 -1 -6 5 -6 15 0 15 -27
0 -36 -7 -4 -8 -3 -4 4 4 7 1 12 -9 12 -12 0 -15 -5 -11 -17 5 -16 4 -16 -7
-3 -15 18 -37 24 -37 10 0 -5 -7 -10 -15 -10 -8 0 -15 -5 -15 -12 0 -6 -3 -8
-7 -4 -5 4 1 14 11 22 13 9 15 14 6 14 -7 0 -10 3 -7 7 9 8 -12 33 -27 33 -6
0 -3 -5 6 -11z m-117 -68 c-4 -3 -9 -1 -13 5 -4 6 -15 10 -25 8 -15 -2 -16 0
-6 12 10 13 14 12 30 -2 11 -10 17 -20 14 -23z m422 7 c-3 -8 -6 -5 -6 6 -1
11 2 17 5 13 3 -3 4 -12 1 -19z m-480 -183 c0 -8 -4 -12 -9 -9 -5 3 -6 10 -3
15 9 13 12 11 12 -6z m593 -1 c0 -2 -7 -4 -15 -4 -8 0 -15 4 -15 10 0 5 7 7
15 4 8 -4 15 -8 15 -10z m24 -49 c-5 -11 -9 -12 -19 -2 -9 8 -10 14 -2 19 16
9 27 0 21 -17z m1 -54 c-3 -3 -10 1 -15 9 -7 10 -10 11 -10 3 0 -7 -5 -13 -11
-13 -8 0 -8 5 1 15 10 12 16 13 27 4 7 -7 11 -14 8 -18z m-35 -202 c-7 -11
-14 -18 -17 -15 -3 3 0 12 7 21 18 21 23 19 10 -6z m-578 -23 c7 4 8 2 4 -5
-6 -8 -12 -9 -20 -2 -7 6 -16 8 -19 4 -4 -3 1 -12 11 -20 16 -12 16 -13 -3 -7
-20 6 -20 5 -1 -10 20 -16 20 -16 -1 -16 -21 0 -24 25 -8 64 7 16 9 17 17 2 5
-9 14 -13 20 -10z m612 -41 c-5 -11 -9 -12 -19 -2 -9 8 -10 14 -2 19 16 9 27
0 21 -17z m1 -54 c-3 -3 -10 1 -15 9 -7 10 -10 11 -10 3 0 -7 -5 -13 -11 -13
-8 0 -8 5 1 15 10 12 16 13 27 4 7 -7 11 -14 8 -18z m-635 -17 c-15 -8 -19
-13 -10 -14 13 0 13 -1 0 -10 -14 -9 -7 -14 13 -11 5 1 6 -3 2 -9 -4 -6 -1
-19 7 -28 12 -15 11 -16 -4 -4 -9 8 -23 10 -29 6 -7 -4 -9 -3 -5 4 3 6 2 14
-4 17 -7 4 -7 11 -2 18 5 7 8 19 7 27 -2 10 7 16 24 17 l26 1 -25 -14z m15
-114 c-3 -5 -14 -10 -23 -10 -15 0 -15 -2 -2 -10 10 -7 11 -10 2 -10 -9 0 -9
-8 2 -35 15 -34 14 -35 -5 -25 -11 6 -17 15 -14 20 3 5 1 12 -5 15 -8 5 -7 11
1 21 6 8 8 14 3 14 -11 1 27 30 39 30 4 0 5 -4 2 -10z m5 -40 c0 -5 -5 -10
-11 -10 -5 0 -7 5 -4 10 3 6 8 10 11 10 2 0 4 -4 4 -10z m580 -31 c-7 -11 -14
-18 -17 -15 -3 3 0 12 7 21 18 21 23 19 10 -6z m-600 -49 c0 -4 -7 -11 -16
-14 -13 -5 -14 -4 -6 7 7 8 8 18 4 22 -4 5 -1 5 6 1 6 -4 12 -11 12 -16z m634
-15 c-5 -11 -9 -12 -19 -2 -9 8 -10 14 -2 19 16 9 27 0 21 -17z m-615 -28 c-2
-2 -11 -8 -20 -15 -12 -9 -16 -9 -16 1 0 7 9 14 20 14 11 1 18 1 16 0z m616
-26 c-3 -3 -10 1 -15 9 -7 10 -10 11 -10 3 0 -7 -5 -13 -11 -13 -8 0 -8 5 1
15 10 12 16 13 27 4 7 -7 11 -14 8 -18z m-615 -11 c0 -5 -2 -10 -4 -10 -3 0
-8 5 -11 10 -3 6 -1 10 4 10 6 0 11 -4 11 -10z m-5 -52 c5 4 5 1 1 -6 -6 -10
-11 -10 -22 -1 -8 6 -14 17 -14 23 0 6 7 3 14 -6 7 -10 17 -14 21 -10z m-20
-38 c-19 -7 -19 -7 0 -18 11 -6 15 -12 10 -12 -17 0 -34 21 -28 36 2 7 12 10
21 7 13 -6 13 -7 -3 -13z m15 -51 c0 -11 -29 -19 -34 -10 -3 5 -3 10 -1 13 8
7 35 5 35 -3z m5 -29 c-3 -5 -12 -10 -18 -10 -7 0 -6 4 3 10 19 12 23 12 15 0z
m585 -21 c-7 -11 -14 -18 -17 -15 -3 3 0 12 7 21 18 21 23 19 10 -6z m34 -64
c-5 -11 -9 -12 -19 -2 -9 8 -10 14 -2 19 16 9 27 0 21 -17z m1 -54 c-3 -3 -10
1 -15 9 -7 10 -10 11 -10 3 0 -7 -5 -13 -11 -13 -8 0 -8 5 1 15 10 12 16 13
27 4 7 -7 11 -14 8 -18z m-637 -44 c11 -26 11 -27 -8 -17 -11 6 -18 15 -15 20
3 5 1 11 -5 15 -6 4 -7 11 -4 17 8 12 16 2 32 -35z m22 33 c0 -5 -5 -10 -11
-10 -5 0 -7 5 -4 10 3 6 8 10 11 10 2 0 4 -4 4 -10z m-20 -80 c0 -4 -7 -11
-16 -14 -13 -5 -14 -4 -6 7 7 8 8 18 4 22 -4 5 -1 5 6 1 6 -4 12 -11 12 -16z
m19 -43 c-2 -2 -11 -8 -20 -15 -12 -9 -16 -9 -16 1 0 7 9 14 20 14 11 1 18 1
16 0z m1 -37 c0 -5 -2 -10 -4 -10 -3 0 -8 5 -11 10 -3 6 -1 10 4 10 6 0 11 -4
11 -10z m580 -31 c-7 -11 -14 -18 -17 -15 -3 3 0 12 7 21 18 21 23 19 10 -6z
m-585 -21 c5 4 5 1 1 -6 -6 -10 -11 -10 -22 -1 -8 6 -14 17 -14 23 0 6 7 3 14
-6 7 -10 17 -14 21 -10z m-20 -38 c-19 -7 -19 -7 0 -18 11 -6 15 -12 10 -12
-17 0 -34 21 -28 36 2 7 12 10 21 7 13 -6 13 -7 -3 -13z m639 -5 c-5 -11 -9
-12 -19 -2 -9 8 -10 14 -2 19 16 9 27 0 21 -17z m1 -54 c-3 -3 -10 1 -15 9 -7
10 -10 11 -10 3 0 -7 -5 -13 -11 -13 -8 0 -8 5 1 15 10 12 16 13 27 4 7 -7 11
-14 8 -18z m-649 3 c-5 -12 -1 -14 17 -9 20 5 20 5 -3 -9 -15 -10 -19 -15 -10
-16 13 0 13 -1 0 -10 -14 -9 -7 -14 13 -11 5 1 6 -3 2 -9 -4 -6 -1 -19 7 -28
12 -15 11 -16 -4 -4 -9 8 -23 10 -29 6 -7 -4 -9 -3 -5 4 3 6 2 13 -4 17 -6 4
-7 12 -3 18 4 7 8 20 9 30 3 32 4 37 10 37 3 0 3 -7 0 -16z m29 -134 c-3 -5
-14 -10 -23 -10 -15 0 -15 -2 -2 -10 10 -7 11 -10 2 -10 -9 0 -9 -8 2 -35 15
-34 14 -35 -5 -25 -11 6 -17 15 -14 20 3 5 1 12 -5 15 -8 5 -7 11 1 21 6 8 8
14 3 14 -11 1 27 30 39 30 4 0 5 -4 2 -10z m5 -40 c0 -5 -5 -10 -11 -10 -5 0
-7 5 -4 10 3 6 8 10 11 10 2 0 4 -4 4 -10z m580 -31 c-7 -11 -14 -18 -17 -15
-3 3 0 12 7 21 18 21 23 19 10 -6z m-600 -49 c0 -4 -7 -11 -16 -14 -13 -5 -14
-4 -6 7 7 8 8 18 4 22 -4 5 -1 5 6 1 6 -4 12 -11 12 -16z m634 -15 c-5 -11 -9
-12 -19 -2 -9 8 -10 14 -2 19 16 9 27 0 21 -17z m-622 -32 c-6 -3 -9 -10 -5
-16 4 -7 -1 -6 -10 2 -21 17 -21 17 6 18 12 0 16 -1 9 -4z m628 -34 c0 -3 -12
-7 -27 -7 -21 0 -23 2 -10 10 10 5 17 14 17 20 0 6 -7 5 -17 -3 -17 -13 -17
-12 -4 4 14 18 16 18 28 1 7 -10 13 -21 13 -25z m-630 -5 c0 -2 -7 -4 -15 -4
-8 0 -15 4 -15 10 0 5 7 7 15 4 8 -4 15 -8 15 -10z"/>
<path d="M2236 1968 c-12 -16 -16 -18 -12 -5 3 9 1 17 -4 17 -13 0 -13 -27 -1
-35 5 -3 12 -1 16 5 4 7 12 7 26 0 10 -6 19 -9 20 -8 0 2 2 14 5 28 3 23 3 23
-10 8 -16 -22 -30 -23 -22 -3 8 21 1 19 -18 -7z"/>
<path d="M1789 1963 c-13 -16 -12 -17 4 -4 9 7 17 15 17 17 0 8 -8 3 -21 -13z"/>
<path d="M2086 1963 c-6 -14 -5 -15 5 -6 7 7 10 15 7 18 -3 3 -9 -2 -12 -12z"/>
<path d="M2330 1975 c0 -5 5 -17 10 -25 5 -8 10 -10 10 -5 0 6 -5 17 -10 25
-5 8 -10 11 -10 5z"/>
<path d="M2040 1962 c0 -5 7 -9 15 -9 8 0 12 4 9 9 -3 4 -9 8 -15 8 -5 0 -9
-4 -9 -8z"/>
<path d="M2430 1941 c0 -6 4 -12 8 -15 5 -3 9 1 9 9 0 8 -4 15 -9 15 -4 0 -8
-4 -8 -9z"/>
<path d="M2467 1879 c7 -7 15 -10 18 -7 3 3 -2 9 -12 12 -14 6 -15 5 -6 -5z"/>
<path d="M2442 1807 c-20 -21 -20 -23 -2 -23 10 0 16 4 13 9 -3 5 1 13 8 18 7
4 11 10 8 13 -3 3 -15 -4 -27 -17z"/>
<path d="M1772 1760 c-13 -11 -18 -21 -12 -25 5 -3 10 -1 10 4 0 6 5 10 11 9
6 -2 13 5 14 15 4 21 5 21 -23 -3z"/>
<path d="M2466 1758 c3 -5 10 -6 15 -3 13 9 11 12 -6 12 -8 0 -12 -4 -9 -9z"/>
<path d="M1775 1610 c-4 -6 -12 -7 -18 -4 -7 4 -9 4 -5 -1 4 -4 2 -15 -4 -24
-7 -9 0 -5 15 8 15 14 27 26 27 28 0 7 -9 3 -15 -7z"/>
<path d="M2414 1599 c-3 -6 -2 -15 3 -20 5 -5 9 -1 10 11 2 22 -2 25 -13 9z"/>
<path d="M1753 1548 c-3 -6 -1 -8 5 -4 6 3 13 2 17 -4 3 -5 -1 -10 -9 -10 -8
0 -18 -4 -21 -10 -4 -7 3 -7 19 0 25 9 31 4 27 -22 0 -4 6 -5 15 -1 13 5 13 8
-3 25 -10 11 -16 23 -13 26 3 3 -3 6 -12 8 -10 1 -21 -3 -25 -8z"/>
<path d="M1084 1499 c-4 -8 -3 -9 4 -5 7 4 12 3 12 -2 0 -17 -13 -22 -28 -9
-10 8 -13 8 -9 1 4 -7 1 -14 -7 -17 -9 -4 -13 1 -11 11 1 9 0 11 -2 4 -4 -11
-8 -11 -21 -1 -14 11 -15 11 -4 -1 18 -21 15 -35 -5 -19 -11 10 -14 10 -9 2 6
-12 -5 -18 -26 -14 -5 0 -8 -3 -8 -8 0 -12 39 -8 66 7 12 6 24 8 28 5 3 -3 6
-2 6 4 0 15 28 11 35 -5 3 -8 3 -17 0 -20 -3 -3 -5 0 -5 6 0 7 -11 11 -25 10
-14 -1 -25 -6 -25 -11 0 -4 -4 -5 -10 -2 -10 6 -14 -6 -11 -35 1 -8 -5 -4 -13
10 -9 14 -16 22 -17 18 -5 -24 -4 -34 6 -40 6 -5 6 -8 -2 -8 -7 0 -13 -8 -13
-17 0 -15 -2 -16 -10 -3 -12 19 -13 33 -2 26 5 -3 9 1 9 9 0 8 -6 16 -13 19
-8 3 -11 0 -7 -10 3 -7 -1 -14 -8 -14 -7 0 -9 -3 -6 -7 4 -3 -1 -12 -11 -20
-15 -13 -15 -13 6 -3 19 9 22 8 22 -9 0 -11 -5 -21 -12 -23 -7 -3 -5 -7 6 -11
9 -4 15 -3 12 2 -3 5 1 12 9 15 13 5 13 2 0 -24 -9 -16 -14 -32 -13 -34 2 -2
0 -8 -4 -12 -4 -3 -6 3 -3 14 4 22 -20 38 -31 20 -4 -7 -3 -8 4 -4 12 7 15 -1
15 -36 0 -10 4 -15 8 -12 5 3 9 -4 9 -15 0 -24 10 -27 29 -8 10 10 12 9 9 -3
-2 -8 3 -14 10 -12 8 1 11 -2 7 -8 -3 -6 -10 -8 -15 -5 -15 10 -21 -14 -9 -37
l12 -23 -20 20 c-11 11 -19 22 -17 25 5 11 -15 34 -23 27 -4 -5 -1 -12 6 -16
11 -7 11 -10 0 -14 -10 -4 -10 -6 -1 -6 6 -1 12 -6 12 -12 0 -5 -4 -8 -8 -5
-4 2 -14 0 -22 -5 -13 -8 -13 -9 0 -7 9 2 15 -1 15 -7 0 -5 -3 -9 -7 -8 -4 2
-5 -4 -1 -12 3 -9 12 -13 23 -10 10 3 24 -4 36 -17 10 -13 12 -17 4 -10 -20
17 -29 15 -25 -5 1 -10 7 -17 12 -16 5 1 9 -7 9 -17 0 -19 -1 -19 -19 0 -10
11 -23 20 -29 20 -7 0 -3 -7 8 -15 18 -13 18 -14 -6 -9 -23 4 -23 3 3 -7 15
-6 27 -15 27 -20 0 -6 6 -7 13 -3 8 5 8 2 -2 -9 -11 -14 -11 -17 0 -17 12 0
12 -2 0 -9 -7 -5 -11 -13 -8 -18 3 -5 0 -10 -7 -10 -13 0 -15 24 -3 43 7 12
-1 24 -15 24 -5 0 -6 -5 -3 -10 4 -6 1 -18 -6 -26 -9 -11 -9 -18 -1 -26 8 -8
8 -17 1 -30 -12 -22 -6 -34 10 -24 6 4 8 13 4 21 -6 17 22 21 32 5 4 -6 -1 -7
-11 -3 -12 4 -15 3 -10 -5 4 -6 -1 -24 -11 -39 -17 -28 -17 -28 3 -11 14 12
23 14 34 7 13 -9 12 -10 -2 -6 -9 3 -19 -1 -22 -9 -10 -25 -7 -36 7 -28 6 4 9
4 5 -1 -4 -4 0 -14 10 -22 15 -12 14 -13 -7 -2 -21 10 -23 9 -18 -6 4 -9 7
-19 7 -21 0 -3 4 -3 8 0 5 3 9 -1 9 -9 0 -10 -4 -12 -12 -5 -7 5 -16 6 -20 2
-5 -4 -5 -1 0 6 6 11 3 12 -14 3 -11 -7 -21 -17 -21 -24 0 -8 4 -7 10 3 5 8
12 11 16 7 4 -4 2 -13 -4 -19 -7 -7 -12 -16 -12 -21 0 -5 9 1 20 14 10 13 19
19 20 13 0 -5 -9 -20 -20 -32 -23 -24 -16 -30 9 -8 12 11 21 12 31 5 13 -10
13 -10 0 -6 -10 3 -26 -10 -44 -34 -15 -22 -22 -38 -16 -37 7 2 15 -3 18 -11
3 -9 0 -11 -8 -6 -8 5 -11 4 -6 -3 3 -5 0 -13 -6 -16 -7 -3 -2 -4 12 -2 14 2
34 -1 45 -6 18 -8 18 -8 -2 -4 -13 2 -23 0 -23 -5 0 -4 -8 -6 -17 -3 -11 4
-14 2 -8 -3 6 -4 11 -12 12 -18 1 -5 5 -19 9 -30 7 -18 6 -18 -9 -6 -10 7 -17
9 -17 3 0 -6 6 -12 13 -15 9 -3 9 -7 -1 -19 -10 -13 -10 -17 0 -21 10 -4 10
-8 -2 -17 -13 -10 -12 -11 4 -6 14 5 17 2 12 -10 -5 -12 -1 -14 17 -10 12 3
16 3 10 0 -14 -6 -17 -30 -5 -37 4 -2 2 -3 -4 -1 -6 1 -17 -9 -23 -22 -8 -19
-8 -23 0 -18 7 4 10 1 7 -7 -3 -8 -10 -14 -15 -14 -6 0 -15 -4 -20 -9 -4 -5
-3 -6 4 -2 7 4 17 -2 22 -13 15 -27 14 -30 -6 -26 -10 1 -12 0 -5 -2 6 -3 12
-9 12 -14 0 -6 -5 -7 -11 -3 -7 4 -7 -1 1 -16 10 -18 9 -24 -1 -32 -11 -7 -9
-8 5 -4 14 5 17 2 12 -10 -5 -12 -1 -14 17 -10 12 3 16 3 10 0 -14 -6 -17 -30
-5 -37 4 -2 1 -2 -5 -1 -25 6 -9 -29 17 -39 12 -4 12 -6 -2 -6 -9 -1 -22 7
-27 17 -14 23 -14 6 0 -19 5 -11 14 -17 18 -15 4 3 8 -1 8 -8 0 -8 -7 -13 -16
-11 -9 1 -15 7 -14 12 1 4 -6 19 -16 31 -16 21 -17 22 -17 3 0 -11 3 -19 6
-19 18 2 21 -4 9 -19 -10 -11 -10 -14 -1 -9 6 4 12 4 13 -1 0 -4 2 -18 5 -30
3 -18 0 -21 -14 -17 -13 5 -14 4 -3 -4 20 -14 671 -16 671 -1 0 5 4 8 8 5 4
-2 8 6 8 19 0 13 -4 21 -10 18 -6 -4 -7 1 -2 12 6 18 6 18 -12 2 -27 -25 -36
-21 -12 5 11 12 20 26 20 30 0 5 4 7 8 4 5 -3 9 2 9 10 0 11 -5 10 -22 -6 -12
-11 -25 -20 -31 -20 -5 0 -5 4 1 8 6 4 17 16 25 26 14 18 13 18 -10 13 -14 -4
-19 -4 -12 -1 6 3 12 15 12 25 0 11 -4 18 -8 15 -4 -2 -8 6 -8 19 0 17 3 21
11 15 7 -6 16 -6 20 -2 5 4 5 1 1 -6 -4 -7 -12 -9 -18 -6 -7 4 -8 2 -4 -5 4
-6 12 -8 18 -5 6 4 8 -1 4 -13 -5 -15 0 -22 21 -31 23 -10 25 -10 13 0 -8 7
-17 20 -19 28 -6 25 -9 45 -10 53 -1 5 -5 6 -9 3 -4 -2 -14 0 -22 6 -12 8 -12
9 3 4 9 -3 17 0 17 6 0 7 6 6 18 -3 14 -11 15 -11 5 1 -18 19 -16 35 1 21 10
-8 16 -9 21 -1 4 6 1 9 -7 8 -8 -2 -12 4 -10 17 3 17 0 15 -18 -7 -12 -16 -27
-28 -33 -28 -8 0 -8 3 -2 8 6 4 17 16 25 26 14 18 13 18 -10 13 -14 -4 -19 -4
-12 -1 15 7 16 34 2 34 -6 0 -5 6 2 14 7 7 18 12 24 9 17 -6 25 26 13 49 -8
16 -8 22 2 29 7 4 10 11 6 15 -4 4 -10 4 -14 1 -9 -10 -11 -67 -1 -61 4 3 8 1
8 -5 0 -18 -20 -23 -26 -6 -6 14 -9 14 -16 3 -8 -10 -9 -10 -5 2 2 8 10 14 16
13 16 -4 14 8 -6 29 -13 15 -14 18 -2 13 10 -4 15 1 16 16 2 18 0 19 -15 8 -9
-8 -14 -9 -10 -5 4 5 2 16 -5 25 -11 14 -10 14 5 2 15 -11 19 -11 24 3 4 12
10 14 19 6 8 -7 12 -5 12 5 0 8 -4 12 -9 9 -12 -7 -6 29 5 37 5 3 1 9 -8 12
-11 5 -14 3 -9 -6 4 -6 -2 -3 -14 7 -23 20 -30 32 -12 21 17 -10 11 7 -7 22
-16 13 -15 13 6 2 21 -10 23 -9 18 5 -8 20 2 48 15 40 5 -4 5 -11 -2 -19 -7
-9 -6 -16 4 -24 12 -10 14 -9 11 6 -1 10 3 24 9 32 8 11 8 13 -1 8 -17 -10
-28 13 -12 25 11 8 10 9 -3 4 -10 -3 -18 -1 -18 4 0 9 14 14 32 11 4 0 4 7 1
16 -4 11 -3 14 5 9 8 -5 10 -1 5 10 -4 11 -8 13 -11 6 -2 -7 -8 -10 -13 -6 -5
3 -6 11 -2 17 12 19 12 38 1 31 -6 -4 -8 -1 -6 7 3 8 11 13 17 12 6 -2 11 2
11 7 0 6 -7 10 -16 8 -10 -2 -19 3 -21 10 -3 6 1 10 9 9 7 -2 10 -2 6 0 -5 3
-8 9 -8 14 0 6 4 8 9 5 5 -4 4 5 -2 18 -9 19 -13 21 -22 10 -7 -10 -14 -11
-25 -3 -13 9 -12 10 3 5 9 -3 17 -3 17 1 0 3 -8 12 -17 20 -16 13 -16 13 5 3
25 -12 30 1 7 23 -12 13 -12 16 0 20 7 3 19 16 26 29 l12 23 -26 -23 c-18 -17
-27 -20 -32 -11 -5 8 -4 10 3 5 7 -4 17 3 23 18 7 14 15 23 20 21 4 -3 11 0
15 6 5 8 3 9 -6 4 -10 -6 -12 -4 -6 10 6 18 6 18 -12 2 -27 -25 -36 -21 -12 5
11 12 20 26 20 30 0 5 4 7 8 4 5 -3 9 2 9 10 0 11 -5 10 -22 -6 -12 -11 -25
-20 -31 -20 -5 0 -5 4 1 8 6 4 17 16 25 26 14 18 13 18 -10 13 -14 -4 -19 -4
-12 -1 6 3 12 15 12 25 0 11 -4 18 -8 15 -4 -2 -8 6 -8 19 0 17 3 21 11 15 7
-6 16 -6 20 -2 5 4 5 1 1 -6 -4 -7 -12 -9 -18 -6 -7 4 -8 2 -4 -5 4 -6 12 -8
18 -5 6 4 8 -1 4 -13 -5 -15 0 -22 21 -31 23 -10 25 -10 13 0 -8 7 -17 20 -19
28 -6 25 -9 45 -10 53 -1 5 -5 6 -9 3 -4 -2 -14 0 -22 6 -12 8 -12 9 3 4 9 -3
17 0 17 6 0 7 6 6 18 -3 14 -11 15 -11 5 1 -18 19 -16 35 1 21 10 -8 16 -9 21
-1 4 6 1 9 -7 8 -8 -2 -12 4 -10 17 3 17 0 15 -18 -7 -12 -16 -27 -28 -33 -28
-8 0 -8 3 -2 8 6 4 17 16 25 26 14 18 13 18 -10 13 -14 -4 -19 -4 -12 -1 6 3
12 12 12 19 0 7 -6 16 -12 18 -10 4 -10 6 0 6 6 1 12 6 12 12 0 5 -4 8 -8 5
-5 -3 -9 1 -9 9 0 8 3 14 6 13 22 -2 30 4 24 19 -5 12 -3 14 8 7 20 -12 40
-14 33 -2 -3 5 -9 7 -12 4 -3 -3 -14 2 -25 11 -12 11 -17 12 -12 4 5 -9 4 -12
-3 -7 -8 5 -10 2 -6 -8 3 -9 2 -16 -3 -16 -14 0 -12 33 4 48 7 7 13 9 13 4 0
-6 6 -12 13 -15 7 -3 13 3 13 13 0 11 -5 16 -15 12 -10 -4 -12 -1 -6 8 5 8 -5
4 -22 -8 -23 -16 -34 -19 -39 -11 -4 7 -3 9 3 6 12 -8 40 24 40 46 0 9 -5 15
-11 14 -6 -1 -10 6 -10 16 2 13 -1 15 -10 7 -7 -5 -15 -9 -17 -7 -2 1 4 -5 14
-13 14 -13 15 -18 5 -29 -11 -11 -10 -12 2 -6 8 5 12 4 7 0 -4 -5 -18 -10 -30
-11 -12 -2 -16 0 -9 2 6 3 9 10 6 15 -3 6 -12 5 -22 -3 -12 -9 -11 -6 2 10 11
12 14 22 8 22 -6 0 -12 6 -15 13 -2 6 -3 5 -2 -4 1 -8 -4 -24 -12 -35 -15 -18
-15 -18 -9 2 4 13 1 26 -9 34 -8 7 -15 9 -15 4 0 -5 -5 -1 -11 9 -11 19 -24
15 -39 -13 -7 -13 -7 -21 2 -26 7 -4 8 -3 4 4 -4 7 -2 12 4 12 6 0 9 4 5 9 -3
5 -1 12 4 15 5 3 11 -1 15 -9 3 -8 1 -15 -5 -15 -6 0 -9 -6 -6 -14 4 -9 0 -13
-11 -11 -9 1 -20 -5 -25 -14 -5 -11 -6 -9 -3 7 5 25 -6 29 -24 7 -7 -8 -16
-12 -22 -9 -5 3 -15 0 -23 -6 -12 -10 -13 -8 -10 9 2 12 0 21 -4 21 -14 0 -31
-26 -23 -36 4 -4 0 -3 -9 4 -9 6 -20 8 -24 4 -5 -4 -5 -1 -1 6 4 6 3 12 -3 12
-5 0 -12 -6 -15 -12 -3 -7 -4 -4 -1 8 3 11 -2 29 -11 40 -15 18 -15 18 -5 -3
7 -13 7 -24 2 -28 -5 -3 -12 4 -16 15 -7 23 -16 25 -33 8 -8 -8 -15 -8 -28 3
-13 11 -18 11 -21 1 -3 -6 -10 -9 -15 -6 -7 5 -8 2 -3 -6 5 -8 3 -11 -6 -8 -8
3 -13 12 -11 21 3 20 -14 31 -24 16z m86 -40 c0 -5 -7 -9 -15 -9 -8 0 -15 -5
-15 -12 0 -6 -3 -9 -6 -6 -9 10 16 49 27 43 5 -4 9 -10 9 -16z m47 -12 c4 -21
3 -21 -13 -2 -16 20 -16 20 -9 0 5 -16 4 -17 -6 -8 -10 10 -9 16 1 28 15 18
23 13 27 -18z m274 10 c-13 -13 -26 -3 -16 12 3 6 11 8 17 5 6 -4 6 -10 -1
-17z m-411 -32 c-7 -8 -17 -15 -23 -15 -6 0 -2 7 9 15 25 19 30 19 14 0z m-77
-162 c-7 -2 -13 -12 -13 -21 0 -15 -2 -15 -10 -2 -9 15 4 30 25 29 6 0 4 -3
-2 -6z m-13 -133 c0 -4 -7 -11 -16 -14 -13 -5 -14 -4 -6 7 7 8 8 18 4 22 -4 5
-1 5 6 1 6 -4 12 -11 12 -16z m634 -284 c-6 -15 -28 -16 -41 -1 -4 4 -3 6 2 2
6 -3 17 -2 25 4 20 12 20 11 14 -5z m-603 -13 c13 -16 12 -17 -3 -4 -10 7 -18
15 -18 17 0 8 8 3 21 -13z m596 -24 c6 -6 9 -17 7 -24 -3 -7 0 -16 6 -20 8 -5
8 -10 0 -20 -8 -9 -8 -15 0 -20 5 -3 10 -11 10 -16 0 -6 -4 -8 -9 -5 -11 7
-22 -20 -15 -37 5 -15 -23 -44 -33 -33 -3 3 -1 6 7 6 10 0 10 4 -1 18 -13 15
-12 16 4 3 20 -15 22 -9 6 21 -8 15 -8 19 0 14 18 -11 13 5 -6 21 -17 13 -16
13 3 4 18 -9 21 -7 21 19 0 24 -3 27 -14 18 -7 -6 -16 -8 -20 -4 -3 3 -1 6 7
6 10 0 10 4 -1 18 -13 16 -12 16 4 3 17 -14 18 -13 15 5 -1 10 -7 22 -13 26
-7 5 -6 8 1 8 5 0 15 -5 21 -11z m-612 -152 c6 -5 3 -7 -7 -3 -23 7 -24 -20
-2 -32 14 -8 14 -10 -4 -14 -14 -4 -19 -2 -16 7 3 7 1 16 -5 20 -8 4 -8 12 0
26 6 12 14 17 17 12 4 -4 12 -12 17 -16z m2 -103 c0 -10 -10 -11 -35 -5 -2 1
-1 5 2 9 8 13 33 10 33 -4z m617 -35 c-3 -5 -15 -8 -27 -8 -18 1 -19 2 -4 6
18 5 18 5 0 19 -16 13 -15 13 9 3 15 -7 25 -16 22 -20z m-614 1 c0 -5 -2 -10
-4 -10 -3 0 -8 5 -11 10 -3 6 -1 10 4 10 6 0 11 -4 11 -10z m-18 -28 c-7 -2
-12 -8 -12 -13 0 -4 8 -6 18 -3 13 5 14 4 3 -4 -7 -5 -10 -15 -7 -21 4 -6 5
-11 2 -11 -3 0 -10 9 -16 19 -12 23 -3 54 13 44 8 -5 7 -8 -1 -11z m18 -145
c11 -5 9 -6 -4 -4 -11 1 -21 9 -23 17 -3 10 -2 11 4 4 4 -6 15 -14 23 -17z
m-3 -33 c0 -10 -10 -11 -35 -5 -2 1 -1 5 2 9 8 13 33 10 33 -4z m3 -34 c0 -5
-2 -10 -4 -10 -3 0 -8 5 -11 10 -3 6 -1 10 4 10 6 0 11 -4 11 -10z m-18 -28
c-7 -2 -12 -8 -12 -13 0 -6 4 -8 9 -4 14 8 25 -15 13 -27 -7 -7 -14 -4 -21 10
-13 24 -4 55 12 45 8 -5 7 -8 -1 -11z m10 -209 c-6 -2 -9 -10 -6 -15 4 -7 2
-8 -5 -4 -13 9 -5 26 12 25 9 0 8 -2 -1 -6z m627 -19 c-15 -18 -22 -13 -13 10
3 9 10 13 16 10 5 -3 4 -12 -3 -20z"/>
<path d="M1170 1500 c0 -5 5 -10 11 -10 5 0 7 5 4 10 -3 6 -8 10 -11 10 -2 0
-4 -4 -4 -10z"/>
<path d="M1294 1474 c5 -14 4 -15 -9 -4 -19 16 -20 3 -1 -15 12 -12 16 -11 32
6 17 19 17 20 -1 13 -13 -5 -16 -4 -11 4 4 7 2 12 -4 12 -7 0 -9 -7 -6 -16z"/>
<path d="M1350 1485 c-1 -5 -3 -17 -5 -26 -4 -21 31 -18 53 6 9 10 11 15 5 11
-7 -4 -13 -2 -13 3 0 6 -5 11 -11 11 -5 0 -7 -4 -4 -10 3 -5 2 -10 -4 -10 -5
0 -12 6 -14 13 -3 6 -6 8 -7 2z"/>
<path d="M1555 1450 c3 -5 8 -10 11 -10 2 0 4 5 4 10 0 6 -5 10 -11 10 -5 0
-7 -4 -4 -10z"/>
<path d="M1615 1320 c3 -5 10 -10 16 -10 5 0 9 5 9 10 0 6 -7 10 -16 10 -8 0
-12 -4 -9 -10z"/>
<path d="M1616 1286 c3 -8 14 -14 24 -13 10 1 16 5 14 9 -3 5 -10 6 -15 3 -5
-4 -9 -1 -9 4 0 6 -4 11 -10 11 -5 0 -7 -6 -4 -14z"/>
<path d="M2414 1279 c-3 -6 -2 -15 3 -20 5 -5 9 -1 10 11 2 22 -2 25 -13 9z"/>
<path d="M933 1231 c0 -11 5 -18 9 -15 4 3 5 11 1 19 -7 21 -12 19 -10 -4z"/>
<path d="M1755 1190 c-3 -5 -1 -10 4 -10 6 0 11 5 11 10 0 6 -2 10 -4 10 -3 0
-8 -4 -11 -10z"/>
<path d="M963 1093 c-17 -6 -17 -20 0 -20 8 0 14 6 14 14 0 7 -1 13 -1 12 -1
0 -7 -3 -13 -6z"/>
<path d="M377 1004 c4 -10 2 -15 -4 -11 -5 3 -10 0 -10 -8 0 -8 5 -12 10 -8 5
3 4 -4 -2 -16 -13 -24 -23 -28 -14 -6 6 17 -16 17 -30 0 -5 -6 -7 -3 -4 7 3 9
1 19 -6 22 -9 3 -9 5 1 5 17 1 15 18 -3 18 -8 0 -11 -5 -8 -10 4 -6 0 -8 -9
-5 -8 4 -15 1 -15 -7 0 -7 6 -11 13 -8 8 3 12 -3 11 -16 -1 -19 -2 -19 -19 -4
-17 15 -20 15 -38 -2 -11 -10 -20 -13 -20 -7 0 7 6 12 13 13 6 0 3 4 -8 8 -26
11 -42 4 -48 -21 -3 -11 -10 -17 -16 -13 -7 3 -8 0 -5 -9 4 -10 1 -16 -7 -16
-11 0 -11 -3 1 -10 8 -5 24 -7 35 -5 11 3 14 2 7 -1 -10 -5 -10 -9 0 -22 10
-14 10 -15 -2 -4 -19 16 -35 16 -21 -1 7 -10 7 -17 0 -24 -8 -8 -8 -13 0 -17
6 -4 11 -13 11 -19 0 -7 -5 -4 -11 5 -8 14 -13 16 -29 6 -16 -10 -17 -14 -5
-31 10 -14 11 -26 5 -37 -10 -18 -4 -30 14 -30 6 0 4 5 -4 10 -8 5 -10 10 -4
10 6 0 11 10 10 22 0 11 5 22 12 24 7 1 8 0 2 -3 -7 -3 -4 -10 7 -19 14 -11
14 -13 2 -9 -10 4 -16 0 -16 -10 0 -8 4 -15 9 -15 5 0 6 -4 3 -10 -3 -5 -14
-10 -25 -10 -10 0 -21 -7 -24 -16 -5 -14 -4 -15 8 -5 22 19 34 5 31 -34 -2
-19 1 -35 6 -35 5 0 4 -6 -3 -14 -7 -8 -15 -14 -18 -14 -18 1 -30 -3 -30 -11
0 -4 10 -8 22 -8 49 -1 51 -2 38 -18 -9 -11 -17 -12 -31 -4 -23 12 -24 6 -4
-15 8 -8 17 -25 19 -38 2 -14 10 -22 20 -22 9 1 13 -2 11 -6 -10 -16 -43 -7
-40 10 2 9 -1 23 -7 31 -8 11 -9 11 -5 -2 3 -9 1 -21 -5 -27 -6 -6 -6 -12 1
-16 18 -11 13 -26 -6 -20 -12 4 -9 -1 7 -15 21 -18 23 -22 10 -31 -9 -6 -18
-6 -24 0 -22 22 -23 8 -2 -15 14 -15 30 -23 39 -19 8 3 18 1 22 -5 3 -6 0 -9
-8 -5 -8 3 -14 -2 -14 -11 0 -8 4 -15 9 -15 5 0 6 -4 3 -10 -9 -15 -27 -12
-19 3 5 9 4 9 -6 0 -11 -10 -17 -10 -29 0 -14 11 -14 10 -2 -5 7 -10 10 -18 5
-18 -5 0 -1 -5 9 -11 10 -6 21 -8 24 -5 4 3 1 6 -5 6 -7 0 -12 5 -12 11 0 8 4
8 14 -1 8 -6 12 -19 9 -27 -5 -12 -3 -14 8 -8 11 6 12 5 2 -5 -10 -11 -16 -10
-35 6 -18 15 -20 15 -9 2 11 -15 11 -18 0 -18 -9 -1 -8 -4 4 -11 10 -6 21 -8
24 -5 8 8 33 -13 33 -28 0 -6 -5 -4 -10 4 -11 18 -12 17 -15 -32 -1 -21 2 -38
7 -38 5 0 3 -6 -4 -14 -7 -8 -15 -14 -18 -14 -18 1 -30 -3 -30 -11 0 -4 10 -8
23 -8 48 -1 50 -2 37 -18 -9 -11 -17 -12 -31 -5 -15 8 -17 7 -13 -5 4 -8 10
-15 15 -15 16 0 5 -25 -16 -37 -16 -9 57 -12 328 -12 312 0 346 1 332 15 -8 9
-15 18 -15 22 0 3 5 1 11 -5 15 -15 39 -5 39 15 0 13 -3 12 -15 -4 -13 -17
-14 -17 -15 -2 0 9 4 19 9 23 6 3 9 14 8 25 -1 10 -3 17 -6 15 -2 -3 -10 3
-17 13 -9 11 -13 13 -14 4 0 -7 -5 -10 -11 -6 -8 4 -7 9 2 15 8 4 19 3 28 -4
12 -10 13 -9 2 11 -6 12 -7 22 -2 22 5 0 12 -6 15 -12 2 -7 3 -2 2 12 -2 14
-13 30 -27 37 -23 12 -23 13 -2 13 12 0 25 -4 28 -10 8 -13 25 -13 25 0 0 5
-6 9 -12 7 -7 -1 -12 4 -10 11 1 8 -2 11 -8 7 -6 -4 -11 -1 -9 6 4 34 0 42
-16 29 -9 -7 -18 -10 -21 -7 -3 3 4 11 16 17 18 10 24 9 31 -1 7 -10 8 -8 5 6
-8 41 -19 65 -26 60 -5 -3 -12 0 -16 6 -5 8 -3 9 6 4 10 -6 12 -4 7 7 -3 9 0
21 6 28 10 10 8 12 -6 7 -11 -4 -16 -3 -12 4 12 18 30 3 30 -26 1 -16 7 -30
15 -33 9 -2 11 0 5 5 -5 4 -11 16 -12 26 -1 13 4 17 15 13 10 -4 7 1 -6 12
-13 10 -20 21 -16 25 11 11 15 45 6 50 -4 3 -14 -2 -22 -11 -13 -14 -12 -15 3
-9 10 4 16 3 12 -2 -6 -10 -45 -11 -45 -1 0 3 9 11 21 18 20 13 20 14 2 34
-10 12 -13 18 -6 15 6 -4 14 -3 17 2 4 5 -2 12 -11 14 -14 4 -12 5 5 6 19 1
22 -3 18 -24 -3 -14 -1 -23 5 -20 5 4 9 1 9 -6 0 -7 3 -9 6 -6 4 4 3 12 -3 19
-5 7 -8 23 -7 35 0 12 -3 20 -8 17 -5 -3 -9 0 -7 7 4 34 0 42 -16 29 -9 -7
-18 -10 -21 -7 -3 3 4 11 16 17 18 10 24 9 31 -1 7 -10 8 -8 5 6 -8 41 -19 65
-26 60 -5 -3 -12 0 -16 6 -4 7 -3 9 3 6 6 -4 13 3 16 15 4 13 1 26 -6 30 -7 4
-7 8 -1 8 5 0 15 -5 21 -11 9 -9 11 -7 9 7 -2 11 2 22 8 26 8 5 7 8 -2 8 -7 0
-10 5 -7 10 3 6 1 10 -4 10 -6 0 -11 -4 -11 -8 0 -5 -7 -9 -15 -9 -8 0 -15 4
-15 9 0 4 6 8 14 8 17 0 65 39 49 40 -7 0 -13 -5 -13 -11 0 -6 -7 -8 -16 -5
-8 3 -13 2 -10 -2 2 -4 -5 -9 -16 -9 -20 -2 -20 -1 -2 12 10 7 22 11 26 9 4
-3 5 2 2 10 -3 9 -10 16 -15 16 -5 0 -9 5 -9 11 0 5 5 7 10 4 6 -3 10 0 11 7
1 7 4 2 8 -12 l7 -25 6 27 c3 17 1 26 -6 25 -6 -1 -11 9 -11 22 0 14 -7 26
-15 29 -12 3 -12 2 -1 -6 7 -5 9 -12 4 -15 -14 -9 -33 28 -22 44 13 21 11 27
-13 35 -33 10 -33 10 -34 -6 -2 -34 -5 -40 -15 -40 -8 0 -7 5 2 16 10 13 10
17 0 24 -9 5 -10 10 -2 14 6 4 11 13 11 19 0 7 -5 4 -11 -5 -5 -10 -15 -18
-21 -18 -7 0 -7 5 1 14 9 11 9 16 -1 22 -7 4 -10 4 -6 -1 9 -9 -9 -35 -24 -35
-5 0 -6 6 -2 13 4 6 3 9 -1 4 -5 -4 -19 0 -33 9 -13 9 -22 11 -18 6 10 -16
-15 -26 -26 -11 -8 11 -8 10 -4 -4 3 -10 6 -21 6 -24 0 -4 10 2 22 13 21 19
21 19 14 0 -5 -16 -4 -17 9 -6 8 7 15 11 16 9 7 -34 6 -38 -4 -32 -22 14 -49
14 -41 1 5 -8 1 -8 -10 1 -14 12 -19 12 -25 2 -6 -10 -10 -9 -14 4 -4 9 -3 13
3 10 6 -3 10 -1 10 5 0 7 -8 9 -21 5 -14 -5 -19 -3 -15 3 3 6 2 14 -4 17 -6 4
-9 1 -8 -6 2 -6 -3 -14 -10 -16 -7 -3 -10 1 -6 10 3 8 1 18 -5 22 -6 3 -9 0
-5 -8 3 -8 1 -18 -5 -21 -6 -4 -8 -13 -5 -20 3 -8 1 -17 -5 -21 -6 -3 -11 -1
-11 5 0 6 -5 8 -12 4 -7 -4 -8 -3 -4 5 4 6 11 9 15 7 9 -6 7 32 -2 39 -4 3 -5
2 -2 -2 6 -8 -14 -33 -27 -33 -6 0 -5 7 2 15 9 11 10 19 3 26 -8 8 -11 6 -10
-6 1 -10 -4 -20 -12 -23 -8 -3 -11 0 -7 6 3 6 2 14 -4 17 -6 4 -9 1 -8 -6 2
-6 -3 -14 -10 -16 -7 -3 -10 1 -6 10 3 8 1 18 -5 22 -7 4 -8 0 -4 -11z m44
-41 c8 -10 9 -14 2 -10 -6 4 -14 3 -18 -3 -4 -6 -11 -8 -16 -4 -6 4 -6 11 2
20 14 17 14 18 30 -3z m120 -25 c-10 -11 -11 -10 -6 4 5 14 2 16 -15 13 -18
-4 -20 -2 -9 11 11 13 14 13 28 0 12 -13 13 -18 2 -28z m160 25 c13 -17 13
-17 -5 -3 -18 14 -19 13 -12 -5 5 -15 4 -17 -5 -8 -6 6 -8 16 -5 22 9 14 11
14 27 -6z m68 -19 c-6 -8 -15 -12 -18 -8 -3 4 0 9 7 11 10 4 8 9 -5 20 -16 13
-16 13 5 3 19 -9 21 -14 11 -26z m-558 9 c-5 -10 -17 -27 -26 -38 -16 -19 -17
-19 -3 5 26 46 29 50 34 50 3 0 0 -8 -5 -17z m74 -13 c3 -6 -1 -7 -9 -4 -18 7
-21 14 -7 14 6 0 13 -4 16 -10z m309 2 c3 -5 -1 -9 -9 -9 -8 0 -12 4 -9 9 3 4
7 8 9 8 2 0 6 -4 9 -8z m-364 -16 c0 -3 -4 -8 -10 -11 -5 -3 -10 -1 -10 4 0 6
5 11 10 11 6 0 10 -2 10 -4z m575 -56 c3 -5 1 -10 -4 -10 -6 0 -11 5 -11 10 0
6 2 10 4 10 3 0 8 -4 11 -10z m-20 -49 c3 -5 2 -12 -3 -15 -5 -3 -9 1 -9 9 0
17 3 19 12 6z m-623 -23 c-7 -7 -12 -8 -12 -2 0 14 12 26 19 19 2 -3 -1 -11
-7 -17z m655 -62 c0 -8 -8 -11 -21 -8 -19 5 -19 6 0 13 10 4 19 8 20 8 0 1 1
-5 1 -13z m-607 -30 c0 -3 -4 -8 -10 -11 -5 -3 -10 -1 -10 4 0 6 5 11 10 11 6
0 10 -2 10 -4z m575 -6 c3 -5 1 -10 -4 -10 -6 0 -11 5 -11 10 0 6 2 10 4 10 3
0 8 -4 11 -10z m-581 -38 c3 -5 -1 -9 -9 -9 -8 0 -12 4 -9 9 3 4 7 8 9 8 2 0
6 -4 9 -8z m601 -52 c-27 -12 -43 -12 -25 0 8 5 22 9 30 9 10 0 8 -3 -5 -9z
m5 -45 c0 -2 -10 -9 -22 -15 -22 -11 -22 -10 -4 4 21 17 26 19 26 11z m-610
-39 c0 -3 -4 -8 -10 -11 -5 -3 -10 -1 -10 4 0 6 5 11 10 11 6 0 10 -2 10 -4z
m-5 -86 c4 -6 -1 -7 -12 -3 -15 5 -16 3 -5 -8 6 -7 12 -17 12 -23 0 -5 -6 -1
-14 9 -14 20 -12 35 4 35 5 0 12 -4 15 -10z m620 -20 c-3 -5 -12 -10 -18 -10
-7 0 -6 4 3 10 19 12 23 12 15 0z m-635 -40 c-18 -12 -30 -13 -30 -2 0 4 10 9
22 9 18 2 20 0 8 -7z m30 -74 c0 -3 -4 -8 -10 -11 -5 -3 -10 -1 -10 4 0 6 5
11 10 11 6 0 10 -2 10 -4z m595 -16 c-27 -12 -43 -12 -25 0 8 5 22 9 30 9 10
0 8 -3 -5 -9z m5 -45 c0 -2 -10 -9 -22 -15 -22 -11 -22 -10 -4 4 21 17 26 19
26 11z m-606 -63 c3 -5 -1 -9 -9 -9 -8 0 -12 4 -9 9 3 4 7 8 9 8 2 0 6 -4 9
-8z m607 -10 c-7 -2 -18 1 -23 6 -8 8 -4 9 13 5 13 -4 18 -8 10 -11z m9 -92
c0 -4 -7 -13 -15 -20 -10 -9 -15 -9 -15 -1 0 6 6 11 13 12 10 0 10 2 0 6 -7 2
-13 9 -13 14 0 4 7 6 15 3 8 -4 15 -10 15 -14z m-630 -50 c-6 -11 -12 -20 -14
-20 -2 0 -2 9 1 20 3 11 9 20 15 20 5 0 4 -9 -2 -20z"/>
<path d="M1761 1004 c0 -11 3 -14 6 -6 3 7 2 16 -1 19 -3 4 -6 -2 -5 -13z"/>
<path d="M160 1006 c0 -2 8 -10 18 -17 15 -13 16 -12 3 4 -13 16 -21 21 -21
13z"/>
<path d="M246 999 c2 -4 -2 -10 -8 -12 -13 -5 -11 -6 19 -7 4 0 8 6 9 13 1 8
-4 14 -12 14 -7 0 -11 -4 -8 -8z"/>
<path d="M335 980 c3 -5 8 -10 11 -10 2 0 4 5 4 10 0 6 -5 10 -11 10 -5 0 -7
-4 -4 -10z"/>
<path d="M1730 979 c0 -5 5 -7 10 -4 6 3 10 8 10 11 0 2 -4 4 -10 4 -5 0 -10
-5 -10 -11z"/>
<path d="M1646 962 c-3 -5 1 -9 9 -9 8 0 12 4 9 9 -3 4 -7 8 -9 8 -2 0 -6 -4
-9 -8z"/>
<path d="M2414 959 c-3 -6 -2 -15 3 -20 5 -5 9 -1 10 11 2 22 -2 25 -13 9z"/>
<path d="M794 935 c-18 -14 -18 -14 4 -8 12 3 22 9 22 14 0 12 -3 11 -26 -6z"/>
<path d="M1616 943 c-10 -10 13 -40 34 -46 11 -3 18 -1 14 4 -3 5 -12 9 -20 9
-17 0 -19 17 -2 22 8 3 6 6 -4 10 -9 4 -19 4 -22 1z"/>
<path d="M134 863 c0 -18 3 -33 8 -33 5 0 6 5 3 11 -4 6 -1 9 7 7 7 -2 15 2
16 7 1 6 -2 11 -8 11 -23 3 -24 6 -6 13 20 8 20 8 0 13 -16 4 -19 -1 -20 -29z"/>
<path d="M1753 865 c0 -8 4 -15 9 -15 4 0 8 4 8 9 0 6 -4 12 -8 15 -5 3 -9 -1
-9 -9z"/>
<path d="M855 860 c-3 -5 -1 -10 4 -10 6 0 11 5 11 10 0 6 -2 10 -4 10 -3 0
-8 -4 -11 -10z"/>
<path d="M940 851 c0 -10 19 -25 25 -20 1 2 -3 10 -11 17 -8 7 -14 8 -14 3z"/>
<path d="M935 809 c-4 -6 -5 -12 -2 -15 2 -3 7 2 10 11 7 17 1 20 -8 4z"/>
<path d="M960 800 c-6 -11 -8 -20 -6 -20 3 0 10 9 16 20 6 11 8 20 6 20 -3 0
-10 -9 -16 -20z"/>
<path d="M146 674 c-11 -7 -18 -16 -15 -18 2 -2 13 2 23 10 11 7 18 16 15 18
-2 2 -13 -2 -23 -10z"/>
<path d="M815 671 c1 -8 7 -16 14 -17 7 -2 7 0 1 3 -7 3 -8 9 -1 17 8 9 7 13
-3 13 -8 0 -13 -7 -11 -16z"/>
<path d="M147 644 c-7 -8 3 -34 13 -34 9 0 8 26 -1 35 -3 3 -8 2 -12 -1z"/>
<path d="M2414 639 c-3 -6 -2 -15 3 -20 5 -5 9 -1 10 11 2 22 -2 25 -13 9z"/>
<path d="M1740 606 c0 -2 7 -9 15 -16 9 -7 15 -8 15 -2 0 5 -7 12 -15 16 -8 3
-15 4 -15 2z"/>
<path d="M1617 576 c-4 -10 1 -12 14 -9 23 6 24 9 5 16 -8 3 -17 0 -19 -7z"/>
<path d="M835 560 c3 -5 8 -10 11 -10 2 0 4 5 4 10 0 6 -5 10 -11 10 -5 0 -7
-4 -4 -10z"/>
<path d="M1754 529 c0 -10 4 -19 8 -19 4 0 8 6 8 14 0 8 -4 17 -8 20 -4 2 -8
-4 -8 -15z"/>
<path d="M1730 459 c0 -5 5 -7 10 -4 6 3 10 8 10 11 0 2 -4 4 -10 4 -5 0 -10
-5 -10 -11z"/>
<path d="M915 400 c3 -5 8 -10 11 -10 2 0 4 5 4 10 0 6 -5 10 -11 10 -5 0 -7
-4 -4 -10z"/>
<path d="M952 399 c2 -6 8 -10 13 -10 5 0 11 4 13 10 2 6 -4 11 -13 11 -9 0
-15 -5 -13 -11z"/>
<path d="M1755 380 c3 -5 8 -10 11 -10 2 0 4 5 4 10 0 6 -5 10 -11 10 -5 0 -7
-4 -4 -10z"/>
<path d="M140 340 c0 -5 7 -7 15 -4 8 4 15 8 15 10 0 2 -7 4 -15 4 -8 0 -15
-4 -15 -10z"/>
<path d="M1616 326 c3 -8 14 -14 24 -13 10 1 16 5 14 9 -3 5 -10 6 -15 3 -5
-4 -9 -1 -9 4 0 6 -4 11 -10 11 -5 0 -7 -6 -4 -14z"/>
<path d="M2414 319 c-3 -6 -2 -15 3 -20 5 -5 9 -1 10 11 2 22 -2 25 -13 9z"/>
<path d="M835 240 c3 -5 8 -10 11 -10 2 0 4 5 4 10 0 6 -5 10 -11 10 -5 0 -7
-4 -4 -10z"/>
<path d="M1755 230 c-3 -5 -1 -10 4 -10 6 0 11 5 11 10 0 6 -2 10 -4 10 -3 0
-8 -4 -11 -10z"/>
<path d="M120 220 c-9 -6 -10 -10 -3 -10 6 0 15 5 18 10 8 12 4 12 -15 0z"/>
<path d="M163 223 c-7 -2 -13 -11 -13 -19 0 -8 -4 -14 -10 -14 -5 0 -10 -5
-10 -10 0 -6 8 -5 20 2 10 7 17 14 15 17 -3 2 0 10 6 18 12 14 11 14 -8 6z"/>
<path d="M147 164 c-7 -8 3 -34 13 -34 9 0 8 26 -1 35 -3 3 -8 2 -12 -1z"/>
<path d="M964 161 c4 -5 1 -12 -4 -14 -6 -3 -5 -4 2 -3 15 3 23 26 8 26 -6 0
-9 -4 -6 -9z"/>
<path d="M835 120 c3 -5 8 -10 11 -10 2 0 4 5 4 10 0 6 -5 10 -11 10 -5 0 -7
-4 -4 -10z"/>
<path d="M133 35 c0 -8 4 -12 9 -9 5 3 6 10 3 15 -9 13 -12 11 -12 -6z"/>
<path d="M936 38 c7 -10 24 -10 24 0 0 5 -7 9 -15 9 -8 0 -12 -4 -9 -9z"/>
</g>
</svg>
